<svg width="30" height="30" viewBox="0 0 30 30" fill="none" xmlns="http://www.w3.org/2000/svg">
<path d="M27.925 15C27.925 22.14 22.135 27.93 14.995 27.93C7.85495 27.93 2.07495 22.13 2.07495 15C2.07495 7.87001 7.86495 2.07001 15.005 2.07001C18.515 2.07001 21.695 3.47001 24.025 5.74001" stroke="#E8DFDB" stroke-width="1.5" stroke-linecap="round" stroke-linejoin="round"/>
<g filter="url(#filter0_i_57043_6326)">
<path d="M8.69503 20.69C8.69503 20.69 10.025 20.09 10.025 18.55C10.025 17.01 7.90503 16.13 7.90503 14.48C7.90503 12.83 9.49503 11.83 9.49503 11.83" stroke="#E8DFDB" stroke-width="1.5" stroke-linecap="round" stroke-linejoin="round"/>
</g>
<g filter="url(#filter1_i_57043_6326)">
<path d="M19.4851 20.69C19.4851 20.69 20.8151 20.09 20.8151 18.55C20.8151 17.01 18.6951 16.13 18.6951 14.48C18.6951 12.83 20.2851 11.83 20.2851 11.83" stroke="#E8DFDB" stroke-width="1.5" stroke-linecap="round" stroke-linejoin="round"/>
</g>
<g filter="url(#filter2_i_57043_6326)">
<path d="M14.0849 20.69C14.0849 20.69 15.4149 20.09 15.4149 18.55C15.4149 17.01 13.2949 16.13 13.2949 14.48C13.2949 13.33 14.0649 12.5 14.5349 12.1C15.2149 11.52 15.6749 10.7 15.6849 9.80003C15.6849 9.79003 15.6849 9.77003 15.6849 9.76003C15.6849 8.46003 14.4949 7.22003 14.4949 7.22003" stroke="#E8DFDB" stroke-width="1.5" stroke-linecap="round" stroke-linejoin="round"/>
</g>
<defs>
<filter id="filter0_i_57043_6326" x="7.15503" y="11.0799" width="3.62012" height="14.3603" filterUnits="userSpaceOnUse" color-interpolation-filters="sRGB">
<feFlood flood-opacity="0" result="BackgroundImageFix"/>
<feBlend mode="normal" in="SourceGraphic" in2="BackgroundImageFix" result="shape"/>
<feColorMatrix in="SourceAlpha" type="matrix" values="0 0 0 0 0 0 0 0 0 0 0 0 0 0 0 0 0 0 127 0" result="hardAlpha"/>
<feOffset dy="4"/>
<feGaussianBlur stdDeviation="2"/>
<feComposite in2="hardAlpha" operator="arithmetic" k2="-1" k3="1"/>
<feColorMatrix type="matrix" values="0 0 0 0 0 0 0 0 0 0 0 0 0 0 0 0 0 0 0.25 0"/>
<feBlend mode="normal" in2="shape" result="effect1_innerShadow_57043_6326"/>
</filter>
<filter id="filter1_i_57043_6326" x="17.9451" y="11.0799" width="3.62012" height="14.3603" filterUnits="userSpaceOnUse" color-interpolation-filters="sRGB">
<feFlood flood-opacity="0" result="BackgroundImageFix"/>
<feBlend mode="normal" in="SourceGraphic" in2="BackgroundImageFix" result="shape"/>
<feColorMatrix in="SourceAlpha" type="matrix" values="0 0 0 0 0 0 0 0 0 0 0 0 0 0 0 0 0 0 127 0" result="hardAlpha"/>
<feOffset dy="4"/>
<feGaussianBlur stdDeviation="2"/>
<feComposite in2="hardAlpha" operator="arithmetic" k2="-1" k3="1"/>
<feColorMatrix type="matrix" values="0 0 0 0 0 0 0 0 0 0 0 0 0 0 0 0 0 0 0.25 0"/>
<feBlend mode="normal" in2="shape" result="effect1_innerShadow_57043_6326"/>
</filter>
<filter id="filter2_i_57043_6326" x="12.5449" y="6.47003" width="3.88989" height="18.9702" filterUnits="userSpaceOnUse" color-interpolation-filters="sRGB">
<feFlood flood-opacity="0" result="BackgroundImageFix"/>
<feBlend mode="normal" in="SourceGraphic" in2="BackgroundImageFix" result="shape"/>
<feColorMatrix in="SourceAlpha" type="matrix" values="0 0 0 0 0 0 0 0 0 0 0 0 0 0 0 0 0 0 127 0" result="hardAlpha"/>
<feOffset dy="4"/>
<feGaussianBlur stdDeviation="2"/>
<feComposite in2="hardAlpha" operator="arithmetic" k2="-1" k3="1"/>
<feColorMatrix type="matrix" values="0 0 0 0 0 0 0 0 0 0 0 0 0 0 0 0 0 0 0.25 0"/>
<feBlend mode="normal" in2="shape" result="effect1_innerShadow_57043_6326"/>
</filter>
</defs>
</svg>
