<svg width="30" height="30" viewBox="0 0 30 30" fill="none" xmlns="http://www.w3.org/2000/svg">
<path d="M27.925 15C27.925 22.14 22.135 27.93 14.995 27.93C7.85495 27.93 2.07495 22.13 2.07495 15C2.07495 7.87001 7.86495 2.07001 15.005 2.07001C18.515 2.07001 21.695 3.47001 24.025 5.74001" stroke="#E8DFDB" stroke-width="1.5" stroke-linecap="round" stroke-linejoin="round"/>
<g filter="url(#filter0_i_57043_6327)">
<path d="M7.85089 9.51757C7.7041 10.2197 7.64404 11.1537 7.64404 11.7945C7.64404 17.0641 10.7401 20.5408 15.4643 20.5408C17.7397 20.5408 19.0942 19.5455 19.8149 18.7616C20.342 19.5592 20.6156 20.3772 20.9559 21.4748C21.0693 21.8293 21.3229 21.9997 21.6165 21.9997C22.1836 21.9997 22.644 21.4952 22.644 20.8272C22.644 19.8523 21.2428 18.148 20.5222 17.4663C17.4661 14.5622 12.8487 16.3415 11.761 13.2602C11.6876 13.0693 11.8878 12.9466 12.0413 13.1034C14.37 15.6666 17.5195 13.5601 20.3687 16.2256C20.6823 16.5119 21.0693 16.3824 21.1294 16.0347C21.1627 15.8438 21.1827 15.5303 21.1827 15.203C21.1827 11.8354 18.9207 10.0289 15.491 10.0289C14.3767 10.0289 13.0755 10.3288 12.0746 10.3288C11.0337 10.3288 9.85267 10.2606 8.8718 9.22443C8.50481 8.84268 7.97767 8.95175 7.85089 9.51757Z" fill="#E8DFDB"/>
</g>
<defs>
<filter id="filter0_i_57043_6327" x="7.64404" y="8.99969" width="15" height="14.5601" filterUnits="userSpaceOnUse" color-interpolation-filters="sRGB">
<feFlood flood-opacity="0" result="BackgroundImageFix"/>
<feBlend mode="normal" in="SourceGraphic" in2="BackgroundImageFix" result="shape"/>
<feColorMatrix in="SourceAlpha" type="matrix" values="0 0 0 0 0 0 0 0 0 0 0 0 0 0 0 0 0 0 127 0" result="hardAlpha"/>
<feOffset dy="1.56014"/>
<feGaussianBlur stdDeviation="0.780069"/>
<feComposite in2="hardAlpha" operator="arithmetic" k2="-1" k3="1"/>
<feColorMatrix type="matrix" values="0 0 0 0 0 0 0 0 0 0 0 0 0 0 0 0 0 0 0.6 0"/>
<feBlend mode="overlay" in2="shape" result="effect1_innerShadow_57043_6327"/>
</filter>
</defs>
</svg>
