<svg width="30" height="30" viewBox="0 0 30 30" fill="none" xmlns="http://www.w3.org/2000/svg">
<path d="M27.925 15C27.925 22.14 22.135 27.93 14.995 27.93C7.85495 27.93 2.07495 22.13 2.07495 15C2.07495 7.87001 7.86495 2.07001 15.005 2.07001C18.515 2.07001 21.695 3.47001 24.025 5.74001" stroke="#E8DFDB" stroke-width="1.5" stroke-linecap="round" stroke-linejoin="round"/>
<g filter="url(#filter0_i_57057_21648)">
<path d="M10.644 14.75C10.843 14.75 11.0337 14.8291 11.1743 14.9697C11.315 15.1104 11.394 15.3011 11.394 15.5V22.5C11.3915 22.6981 11.3115 22.8872 11.1714 23.0273C11.0313 23.1674 10.8421 23.2474 10.644 23.25C10.4459 23.2474 10.2568 23.1674 10.1167 23.0273C9.9766 22.8872 9.89663 22.6981 9.89404 22.5V15.5C9.89404 15.3011 9.97312 15.1104 10.1138 14.9697C10.2544 14.8291 10.4451 14.75 10.644 14.75ZM15.144 18.75C15.343 18.75 15.5337 18.8291 15.6743 18.9697C15.815 19.1104 15.894 19.3011 15.894 19.5V22.5C15.8915 22.6981 15.8115 22.8872 15.6714 23.0273C15.5313 23.1674 15.3422 23.2474 15.144 23.25C14.9459 23.2474 14.7568 23.1674 14.6167 23.0273C14.4766 22.8872 14.3966 22.6981 14.394 22.5V19.5C14.394 19.3011 14.4731 19.1104 14.6138 18.9697C14.7544 18.8291 14.9451 18.75 15.144 18.75ZM19.644 14.75C19.843 14.75 20.0337 14.8291 20.1743 14.9697C20.315 15.1104 20.394 15.3011 20.394 15.5V22.5C20.3915 22.6981 20.3115 22.8872 20.1714 23.0273C20.0313 23.1674 19.8421 23.2474 19.644 23.25C19.4459 23.2474 19.2568 23.1674 19.1167 23.0273C18.9766 22.8872 18.8966 22.6981 18.894 22.5V15.5C18.894 15.3011 18.9731 15.1104 19.1138 14.9697C19.2544 14.8291 19.4451 14.75 19.644 14.75ZM15.144 7.75C15.343 7.75 15.5337 7.82907 15.6743 7.96973C15.815 8.11038 15.894 8.30109 15.894 8.5V16.75H16.644C16.843 16.75 17.0337 16.8291 17.1743 16.9697C17.315 17.1104 17.394 17.3011 17.394 17.5C17.394 17.6989 17.315 17.8896 17.1743 18.0303C17.0337 18.1709 16.843 18.25 16.644 18.25H13.644C13.4451 18.25 13.2544 18.1709 13.1138 18.0303C12.9731 17.8896 12.894 17.6989 12.894 17.5C12.894 17.3011 12.9731 17.1104 13.1138 16.9697C13.2544 16.8291 13.4451 16.75 13.644 16.75H14.394V8.5C14.394 8.30109 14.4731 8.11038 14.6138 7.96973C14.7544 7.82907 14.9451 7.75 15.144 7.75ZM10.644 7.75C10.843 7.75 11.0337 7.82907 11.1743 7.96973C11.315 8.11038 11.394 8.30109 11.394 8.5V12.75H12.144C12.343 12.75 12.5337 12.8291 12.6743 12.9697C12.815 13.1104 12.894 13.3011 12.894 13.5C12.894 13.6989 12.815 13.8896 12.6743 14.0303C12.5337 14.1709 12.343 14.25 12.144 14.25H9.14404C8.94513 14.25 8.75442 14.1709 8.61377 14.0303C8.47312 13.8896 8.39404 13.6989 8.39404 13.5C8.39404 13.3011 8.47312 13.1104 8.61377 12.9697C8.75442 12.8291 8.94513 12.75 9.14404 12.75H9.89404V8.5C9.89404 8.30109 9.97312 8.11038 10.1138 7.96973C10.2544 7.82907 10.4451 7.75 10.644 7.75ZM19.644 7.75C19.843 7.75 20.0337 7.82907 20.1743 7.96973C20.315 8.11038 20.394 8.30109 20.394 8.5V12.75H21.144C21.343 12.75 21.5337 12.8291 21.6743 12.9697C21.815 13.1104 21.894 13.3011 21.894 13.5C21.894 13.6989 21.815 13.8896 21.6743 14.0303C21.5337 14.1709 21.343 14.25 21.144 14.25H18.144C17.9451 14.25 17.7544 14.1709 17.6138 14.0303C17.4731 13.8896 17.394 13.6989 17.394 13.5C17.394 13.3011 17.4731 13.1104 17.6138 12.9697C17.7544 12.8291 17.9451 12.75 18.144 12.75H18.894V8.5C18.894 8.30109 18.9731 8.11038 19.1138 7.96973C19.2544 7.82907 19.4451 7.75 19.644 7.75Z" fill="#E8DFDB"/>
</g>
<defs>
<filter id="filter0_i_57057_21648" x="8.39404" y="7.75" width="13.5" height="19.5" filterUnits="userSpaceOnUse" color-interpolation-filters="sRGB">
<feFlood flood-opacity="0" result="BackgroundImageFix"/>
<feBlend mode="normal" in="SourceGraphic" in2="BackgroundImageFix" result="shape"/>
<feColorMatrix in="SourceAlpha" type="matrix" values="0 0 0 0 0 0 0 0 0 0 0 0 0 0 0 0 0 0 127 0" result="hardAlpha"/>
<feOffset dy="4"/>
<feGaussianBlur stdDeviation="2"/>
<feComposite in2="hardAlpha" operator="arithmetic" k2="-1" k3="1"/>
<feColorMatrix type="matrix" values="0 0 0 0 0 0 0 0 0 0 0 0 0 0 0 0 0 0 0.25 0"/>
<feBlend mode="normal" in2="shape" result="effect1_innerShadow_57057_21648"/>
</filter>
</defs>
</svg>
